# xmcd
#
# Track frame offsets:
#	150
#	14997
#	29455
#	42585
#	57522
#	71435
#	85945
#	99845
#	114625
#	128832
#	143047
#	156367
#	170177
#	183100
#	195915
#	209300
#	222535
#	237402
#	252025
#	265120
#	278602
#	291787
#	305162
#	319445
#
# Disc length: 4431 seconds
#
# Revision: 2
# Processed by: cddbd v1.5.1PL2 Copyright (c) Steve Scherf et al.
# Submitted via: MusicManager 7.3.0.0 
#
DISCID=71114d18
DTITLE=Blind Willie McTell - Comp Rec Works in Chrono Order, Vol 2
DYEAR=1931
DGENRE=Blues
TTITLE0=Rough Alley Blues
TTITLE1=Experience Blues
TTITLE2=Painful Blues
TTITLE3=Low Rider's Blues
TTITLE4=Georgia Rag
TTITLE5=Low Down Blues
TTITLE6=Rollin Mama Blues
TTITLE7=Lonesome Day Blues
TTITLE8=Mama, Let Me Scoop You Up
TTITLE9=Searching The Desert For The Blues
TTITLE10=Warm It Up To Me
TTITLE11=It's Your Time To Worry
TTITLE12=It's A Good Little Thing
TTITLE13=You Was Born To Die
TTITLE14=Lord Have Mercy If You Please
TTITLE15=Don't YOu See How This World Made A Change
TTITLE16=Savannah Mama
TTITLE17=Broke Down Engine
TTITLE18=Broke Down Engine No_2
TTITLE19=My Baby's Gone
TTITLE20=Love-Makin Mama
TTITLE21=Death Room Blues
TTITLE22=Death Cell Blues
TTITLE23=Lord, Send Me An Angel
EXTD=YEAR: 1931-33 ID3G:   0
EXTT0=
EXTT1=
EXTT2=
EXTT3=
EXTT4=
EXTT5=
EXTT6=
EXTT7=
EXTT8=
EXTT9=
EXTT10=
EXTT11=
EXTT12=
EXTT13=
EXTT14=
EXTT15=
EXTT16=
EXTT17=
EXTT18=
EXTT19=
EXTT20=
EXTT21=
EXTT22=
EXTT23=
PLAYORDER=
